{"title":"False.Witness.AKA.The.Diplomat.2009.BRip.720p.Eng.MP4","uid":8993415,"size":2379310814,"categoryP":"video","categoryS":"hd___movies","magnet":"?xt=urn:btih:ff9ccfd5abb30b62ec15ae3feac215757de2fffa&amp;dn=False.Witness.AKA.The.Diplomat.2009.BRip.720p.Eng.MP4&amp;tr=udp%3A%2F%2Ftracker.openbittorrent.com%3A80&amp;tr=udp%3A%2F%2Fopen.demonii.com%3A1337&amp;tr=udp%3A%2F%2Ftracker.coppersurfer.tk%3A6969&amp;tr=udp%3A%2F%2Fexodus.desync.com%3A6969","seeders":0,"leechers":1,"uploader":"beljici","files":-1,"time":1380841260,"description":"Hi\n\nI know that a lot of you people looking for good HD quality of this movie False.Witness.AKA.The.Diplomat.2009.\n\nSo, I give you for free.\n\nPlease, first download the SAMPLE if you are not sure is this FAKE or REAL, before comment something.\n***************************\nA: 10\nV: 10\n\nBRip to 720p\n\nAudio: English\nHardcored subtitles: NONE\n\n***************************\nI found only Finnis subtitles on web, please translate it on English or Serbian/Croatian (latin), it is in a different folder than upload it to opensubtitles.org\n\nGeneral\n\nComplete name  -  False.Witness.AKA.The.Diplomat.2009.BRip.720p.Eng.AAC.(FreeAssange).mp4\n\nFormat                                   : MPEG-4\nFormat profile                           : Base Media\nCodec ID                                 : isom\nFile size                                : 2.20 GiB\nDuration                                 : 2h 57mn\nOverall bit rate                         : 1 779 Kbps\nEncoded date                             : UTC 2013-10-03 22:19:19\nTagged date                              : UTC 2013-10-03 22:19:19\nWriting application                      : Lavf55.14.101\n\nVideo\nID                                       : 1\nFormat                                   : AVC\nFormat/Info                              : Advanced Video Codec\nFormat profile                           : &lt;a class=&quot;__cf_email__&quot; href=&quot;/cdn-cgi/l/email-protection&quot; data-cfemail=&quot;337b5a545b737f001d02&quot;&gt;[email&amp;#160;protected]&lt;/a&gt;&lt;script cf-hash='f9e31' type=&quot;text/javascript&quot;&gt;\n/* &lt;![CDATA[ */!function(){try{var t=&quot;currentScript&quot;in document?document.currentScript:function(){for(var t=document.getElementsByTagName(&quot;script&quot;),e=t.length;e--;)if(t[e].getAttribute(&quot;cf-hash&quot;))return t[e]}();if(t&amp;&amp;t.previousSibling){var e,r,n,i,c=t.previousSibling,a=c.getAttribute(&quot;data-cfemail&quot;);if(a){for(e=&quot;&quot;,r=parseInt(a.substr(0,2),16),n=2;a.length-n;n+=2)i=parseInt(a.substr(n,2),16)^r,e+=String.fromCharCode(i);e=document.createTextNode(e),c.parentNode.replaceChild(e,c)}}}catch(u){}}();/* ]]&gt; */&lt;/script&gt;\nFormat settings, CABAC                   : Yes\nFormat settings, ReFrames                : 7 frames\nCodec ID                                 : avc1\nCodec ID/Info                            : Advanced Video Coding\nDuration                                 : 2h 57mn\nBit rate                                 : 1 645 Kbps\nWidth                                    : 716 pixels\nHeight                                   : 576 pixels\nDisplay aspect ratio                     : 16:9\nFrame rate mode                          : Variable\nFrame rate                               : 25.000 fps\nMinimum frame rate                       : 25.000 fps\nMaximum frame rate                       : 16 000.000 fps\nColor space                              : YUV\nChroma subsampling                       : 4:2:0\nBit depth                                : 8 bits\nScan type                                : Progressive\nBits/(Pixel*Frame)                       : 0.160\nStream size                              : 2.03 GiB (92%)\nWriting library                          : x264 core 77 r1281 3836218\nEncoding settings                        : cabac=1 // deblock=1:-2:0\nLanguage                                 : English\nEncoded date                             : UTC 2013-10-03 22:19:19\nTagged date                              : UTC 2013-10-03 22:19:19\nMatrix coefficients                      : BT.601\n\nAudio\nID                                       : 2\nFormat                                   : AAC\nFormat/Info                              : Advanced Audio Codec\nFormat profile                           : LC\nCodec ID                                 : 40\nDuration                                 : 2h 57mn\nDuration_FirstFrame                      : -21ms\nBit rate mode                            : Constant\nBit rate                                 : 128 Kbps\nChannel(s)                               : 2 channels\nChannel positions                        : Front: L R\nSampling rate                            : 48.0 KHz\nCompression mode                         : Lossy\nStream size                              : 162 MiB (7%)\nLanguage                                 : English\nEncoded date                             : UTC 2013-10-03 22:19:19\nTagged date                              : UTC 2013-10-03 22:19:19\n\n\nThanks\n\nPLEASE SEED, or give the UPLOAD to 0 :)\nPLEASE SEED, or give the UPLOAD to 0 :)\nPLEASE SEED, or give the UPLOAD to 0 :)\nPLEASE SEED, or give the UPLOAD to 0 :)\t","torrent":{"xt":"urn:btih:ff9ccfd5abb30b62ec15ae3feac215757de2fffa","amp;dn":"False.Witness.AKA.The.Diplomat.2009.BRip.720p.Eng.MP4","amp;tr":["udp%3A%2F%2Ftracker.openbittorrent.com%3A80","udp%3A%2F%2Fopen.demonii.com%3A1337","udp%3A%2F%2Ftracker.coppersurfer.tk%3A6969","udp%3A%2F%2Fexodus.desync.com%3A6969"],"infoHash":"ff9ccfd5abb30b62ec15ae3feac215757de2fffa","infoHashBuffer":{"type":"Buffer","data":[255,156,207,213,171,179,11,98,236,21,174,63,234,194,21,117,125,226,255,250]},"announce":[],"urlList":[]}}